<?xml version="1.0" encoding="UTF-8" standalone="no"?>
<svg
   viewBox="0 0 215 48"
   fill="#ffd736"
   version="1.1"
   id="svg5"
   sodipodi:docname="divd-works-logo.svg"
   inkscape:version="1.3.1 (9b9bdc1480, 2023-11-25, custom)"
   width="215"
   height="48"
   xmlns:inkscape="http://www.inkscape.org/namespaces/inkscape"
   xmlns:sodipodi="http://sodipodi.sourceforge.net/DTD/sodipodi-0.dtd"
   xmlns="http://www.w3.org/2000/svg"
   xmlns:svg="http://www.w3.org/2000/svg">
  <defs
     id="defs5" />
  <sodipodi:namedview
     id="namedview5"
     pagecolor="#ffffff"
     bordercolor="#000000"
     borderopacity="0.25"
     inkscape:showpageshadow="2"
     inkscape:pageopacity="0.0"
     inkscape:pagecheckerboard="0"
     inkscape:deskcolor="#d1d1d1"
     inkscape:zoom="7.5625"
     inkscape:cx="113.98347"
     inkscape:cy="23.867769"
     inkscape:window-width="1854"
     inkscape:window-height="1011"
     inkscape:window-x="0"
     inkscape:window-y="0"
     inkscape:window-maximized="1"
     inkscape:current-layer="svg5"
     showgrid="false" />
  <g
     id="g5">
    <path
       d="M 71.356,0.125244 H 23.8718 C 10.7088,0.125244 0,10.834 0,23.997 0,37.16 10.7088,47.8746 23.8718,47.8746 H 71.356 c 13.1689,0 23.8833,-10.709 23.8833,-23.8776 0,-13.1686 -10.7144,-23.871756 -23.8833,-23.871756 z m 0,44.776856 H 23.8718 C 12.3447,44.9021 2.9723,35.5239 2.9723,23.997 2.9723,12.4701 12.3447,3.09764 23.8718,3.09764 H 71.356 c 11.533,0 20.9111,9.37246 20.9111,20.89936 0,11.5269 -9.3781,20.9051 -20.9111,20.9051 z"
       id="path1" />
    <path
       d="m 28.0654,15.27 c -0.8582,-0.7489 -1.8202,-1.2674 -2.8744,-1.5382 -1.0542,-0.2765 -2.3217,-0.409 -3.7961,-0.409 h -5.6742 c -0.9392,0 -1.6131,0.2074 -2.0336,0.628 -0.4205,0.4206 -0.6337,1.1002 -0.6337,2.0393 v 15.7551 c 0,0.697 0.0636,1.2615 0.1845,1.6936 0.1209,0.4378 0.3859,0.772 0.7834,1.0139 0.4034,0.2419 0.9966,0.3572 1.7915,0.3572 h 5.6686 c 0.9907,0 1.8778,-0.0634 2.6612,-0.1901 0.7893,-0.1267 1.5268,-0.3457 2.2063,-0.6566 0.6855,-0.3169 1.3136,-0.7316 1.8953,-1.2501 0.7316,-0.6739 1.3307,-1.4344 1.803,-2.2927 0.4666,-0.8526 0.8123,-1.8145 1.0371,-2.8803 0.2247,-1.0656 0.3398,-2.2408 0.3398,-3.5312 0,-3.9115 -1.1177,-6.8208 -3.3587,-8.7389 z m -3.2372,15.0696 c -0.3226,0.2823 -0.7088,0.5069 -1.1465,0.6624 -0.4377,0.1555 -0.8641,0.2536 -1.2731,0.2938 -0.409,0.0346 -0.9794,0.0577 -1.6995,0.0577 H 17.4083 V 16.7677 h 2.8747 c 1.3248,0 2.4598,0.144 3.3987,0.432 0.9389,0.288 1.7282,0.9562 2.3675,2.0162 0.6393,1.0542 0.9623,2.6442 0.9623,4.764 0,3.007 -0.7319,5.1269 -2.1833,6.3597 z"
       id="path2" />
    <path
       d="m 39.1719,13.605 c -0.409,-0.432 -0.9392,-0.6509 -1.5901,-0.6509 -0.6393,0 -1.1577,0.2188 -1.5552,0.6624 -0.4034,0.4378 -0.5991,1.0945 -0.5991,1.9758 v 16.9304 c 0,0.8814 0.2017,1.5438 0.6047,1.9874 0.409,0.4436 0.9217,0.6682 1.5496,0.6682 0.6509,0 1.1811,-0.2188 1.5901,-0.6624 0.4031,-0.4378 0.6047,-1.1002 0.6047,-1.9931 V 15.5924 c 0,-0.8872 -0.2017,-1.5496 -0.6047,-1.9874 z"
       id="path3" />
    <path
       d="m 61.7591,13.9737 c -0.1786,-0.3111 -0.4264,-0.5531 -0.749,-0.7431 -0.3167,-0.1844 -0.6624,-0.2765 -1.0312,-0.2765 -0.5069,0 -0.9099,0.1209 -1.2039,0.3571 -0.2937,0.2419 -0.5012,0.5126 -0.6278,0.8066 -0.1269,0.2994 -0.3167,0.8295 -0.5704,1.5898 l -4.885,14.5168 -4.8675,-14.413 C 47.5017,14.8148 47.1906,14.089 46.8795,13.6339 46.5743,13.1788 46.05,12.9542 45.3069,12.9542 c -0.6047,0 -1.1119,0.2073 -1.5093,0.6163 -0.4034,0.409 -0.6047,0.8641 -0.6047,1.3653 0,0.1958 0.0346,0.432 0.0979,0.7143 0.0633,0.288 0.1384,0.5472 0.2363,0.7949 0.092,0.242 0.1783,0.4897 0.2706,0.7431 l 5.1153,13.929 c 0.1845,0.5358 0.3688,1.0485 0.553,1.5266 0.1901,0.478 0.4034,0.9044 0.6568,1.2788 0.2478,0.3801 0.5761,0.6797 0.9794,0.9102 0.409,0.2304 0.9043,0.3456 1.4863,0.3456 0.5876,0 1.0829,-0.1152 1.4919,-0.3513 0.4031,-0.2363 0.7316,-0.5358 0.9735,-0.9044 0.2419,-0.3628 0.4607,-0.7893 0.6453,-1.2731 0.1842,-0.4839 0.3685,-0.9966 0.5586,-1.5324 l 5.202,-14.0442 c 0.0864,-0.2534 0.1786,-0.5012 0.265,-0.7374 0.0864,-0.2419 0.1612,-0.4839 0.2188,-0.7374 0.0577,-0.2477 0.0864,-0.4782 0.0864,-0.697 0,-0.3111 -0.0867,-0.6222 -0.2709,-0.9274 z"
       id="path4" />
    <path
       d="m 80.3426,15.27 c -0.8641,-0.7489 -1.8202,-1.2674 -2.8744,-1.5382 -1.0542,-0.2765 -2.3217,-0.409 -3.7961,-0.409 h -5.6742 c -0.9392,0 -1.6188,0.2074 -2.0393,0.628 -0.4205,0.4206 -0.6281,1.1002 -0.6281,2.0393 v 15.7551 c 0,0.697 0.0577,1.2615 0.1845,1.6936 0.1209,0.4378 0.3803,0.772 0.7834,1.0139 0.3974,0.2419 0.9966,0.3572 1.7858,0.3572 h 5.6742 c 0.985,0 1.8722,-0.0634 2.6612,-0.1901 0.7893,-0.1267 1.5209,-0.3457 2.2063,-0.6566 0.6855,-0.3169 1.3136,-0.7316 1.8896,-1.2501 0.7316,-0.6739 1.3364,-1.4344 1.803,-2.2927 0.4723,-0.8526 0.818,-1.8145 1.0427,-2.8803 0.2247,-1.0656 0.3342,-2.2408 0.3342,-3.5312 0,-3.9115 -1.1175,-6.8208 -3.3528,-8.7389 z m -3.2431,15.0696 c -0.3226,0.2823 -0.7029,0.5069 -1.1406,0.6624 -0.4436,0.1555 -0.8641,0.2536 -1.2787,0.2938 -0.4093,0.0346 -0.9738,0.0577 -1.6995,0.0577 H 69.6855 V 16.7677 h 2.8688 c 1.3307,0 2.4657,0.144 3.4046,0.432 0.9389,0.288 1.7282,0.9562 2.3675,2.0162 0.6393,1.0542 0.9563,2.6442 0.9563,4.764 0,3.007 -0.7259,5.1269 -2.1832,6.3597 z"
       id="path5" />
  </g>
  <text
     x="98.372726"
     y="34.837246"
     font-family="Arial"
     font-size="40px"
     fill="#000000"
     id="text5"
     style="font-size:37.3333px;fill:#ffd736;fill-opacity:1"><tspan
       style="font-style:normal;font-variant:normal;font-weight:normal;font-stretch:normal;font-size:29.3333px;font-family:'Arial Rounded MT Bold';-inkscape-font-specification:'Arial Rounded MT Bold, '"
       id="tspan2">.</tspan><tspan
       style="font-style:normal;font-variant:normal;font-weight:normal;font-stretch:normal;font-size:37.3333px;font-family:ArialRoundedMTBold;-inkscape-font-specification:ArialRoundedMTBold"
       id="tspan1">works</tspan></text>
</svg>
