<?xml version="1.0" encoding="UTF-8" standalone="no"?>
<svg
   viewBox="0 0 215 48"
   fill="#ffd736"
   version="1.1"
   id="svg5"
   sodipodi:docname="divd-works-logo-v2.svg"
   inkscape:version="1.3.1 (9b9bdc1480, 2023-11-25, custom)"
   width="215"
   height="48"
   xmlns:inkscape="http://www.inkscape.org/namespaces/inkscape"
   xmlns:sodipodi="http://sodipodi.sourceforge.net/DTD/sodipodi-0.dtd"
   xmlns="http://www.w3.org/2000/svg"
   xmlns:svg="http://www.w3.org/2000/svg">
  <defs
     id="defs5" />
  <sodipodi:namedview
     id="namedview5"
     pagecolor="#ffffff"
     bordercolor="#000000"
     borderopacity="0.25"
     inkscape:showpageshadow="2"
     inkscape:pageopacity="0.0"
     inkscape:pagecheckerboard="0"
     inkscape:deskcolor="#d1d1d1"
     inkscape:zoom="7.5625"
     inkscape:cx="113.98347"
     inkscape:cy="23.867769"
     inkscape:window-width="1854"
     inkscape:window-height="1011"
     inkscape:window-x="0"
     inkscape:window-y="0"
     inkscape:window-maximized="1"
     inkscape:current-layer="text5"
     showgrid="false" />
  <g
     id="g5">
    <path
       d="M 71.356,0.125244 H 23.8718 C 10.7088,0.125244 0,10.834 0,23.997 0,37.16 10.7088,47.8746 23.8718,47.8746 H 71.356 c 13.1689,0 23.8833,-10.709 23.8833,-23.8776 0,-13.1686 -10.7144,-23.871756 -23.8833,-23.871756 z m 0,44.776856 H 23.8718 C 12.3447,44.9021 2.9723,35.5239 2.9723,23.997 2.9723,12.4701 12.3447,3.09764 23.8718,3.09764 H 71.356 c 11.533,0 20.9111,9.37246 20.9111,20.89936 0,11.5269 -9.3781,20.9051 -20.9111,20.9051 z"
       id="path1" />
    <path
       d="m 28.0654,15.27 c -0.8582,-0.7489 -1.8202,-1.2674 -2.8744,-1.5382 -1.0542,-0.2765 -2.3217,-0.409 -3.7961,-0.409 h -5.6742 c -0.9392,0 -1.6131,0.2074 -2.0336,0.628 -0.4205,0.4206 -0.6337,1.1002 -0.6337,2.0393 v 15.7551 c 0,0.697 0.0636,1.2615 0.1845,1.6936 0.1209,0.4378 0.3859,0.772 0.7834,1.0139 0.4034,0.2419 0.9966,0.3572 1.7915,0.3572 h 5.6686 c 0.9907,0 1.8778,-0.0634 2.6612,-0.1901 0.7893,-0.1267 1.5268,-0.3457 2.2063,-0.6566 0.6855,-0.3169 1.3136,-0.7316 1.8953,-1.2501 0.7316,-0.6739 1.3307,-1.4344 1.803,-2.2927 0.4666,-0.8526 0.8123,-1.8145 1.0371,-2.8803 0.2247,-1.0656 0.3398,-2.2408 0.3398,-3.5312 0,-3.9115 -1.1177,-6.8208 -3.3587,-8.7389 z m -3.2372,15.0696 c -0.3226,0.2823 -0.7088,0.5069 -1.1465,0.6624 -0.4377,0.1555 -0.8641,0.2536 -1.2731,0.2938 -0.409,0.0346 -0.9794,0.0577 -1.6995,0.0577 H 17.4083 V 16.7677 h 2.8747 c 1.3248,0 2.4598,0.144 3.3987,0.432 0.9389,0.288 1.7282,0.9562 2.3675,2.0162 0.6393,1.0542 0.9623,2.6442 0.9623,4.764 0,3.007 -0.7319,5.1269 -2.1833,6.3597 z"
       id="path2" />
    <path
       d="m 39.1719,13.605 c -0.409,-0.432 -0.9392,-0.6509 -1.5901,-0.6509 -0.6393,0 -1.1577,0.2188 -1.5552,0.6624 -0.4034,0.4378 -0.5991,1.0945 -0.5991,1.9758 v 16.9304 c 0,0.8814 0.2017,1.5438 0.6047,1.9874 0.409,0.4436 0.9217,0.6682 1.5496,0.6682 0.6509,0 1.1811,-0.2188 1.5901,-0.6624 0.4031,-0.4378 0.6047,-1.1002 0.6047,-1.9931 V 15.5924 c 0,-0.8872 -0.2017,-1.5496 -0.6047,-1.9874 z"
       id="path3" />
    <path
       d="m 61.7591,13.9737 c -0.1786,-0.3111 -0.4264,-0.5531 -0.749,-0.7431 -0.3167,-0.1844 -0.6624,-0.2765 -1.0312,-0.2765 -0.5069,0 -0.9099,0.1209 -1.2039,0.3571 -0.2937,0.2419 -0.5012,0.5126 -0.6278,0.8066 -0.1269,0.2994 -0.3167,0.8295 -0.5704,1.5898 l -4.885,14.5168 -4.8675,-14.413 C 47.5017,14.8148 47.1906,14.089 46.8795,13.6339 46.5743,13.1788 46.05,12.9542 45.3069,12.9542 c -0.6047,0 -1.1119,0.2073 -1.5093,0.6163 -0.4034,0.409 -0.6047,0.8641 -0.6047,1.3653 0,0.1958 0.0346,0.432 0.0979,0.7143 0.0633,0.288 0.1384,0.5472 0.2363,0.7949 0.092,0.242 0.1783,0.4897 0.2706,0.7431 l 5.1153,13.929 c 0.1845,0.5358 0.3688,1.0485 0.553,1.5266 0.1901,0.478 0.4034,0.9044 0.6568,1.2788 0.2478,0.3801 0.5761,0.6797 0.9794,0.9102 0.409,0.2304 0.9043,0.3456 1.4863,0.3456 0.5876,0 1.0829,-0.1152 1.4919,-0.3513 0.4031,-0.2363 0.7316,-0.5358 0.9735,-0.9044 0.2419,-0.3628 0.4607,-0.7893 0.6453,-1.2731 0.1842,-0.4839 0.3685,-0.9966 0.5586,-1.5324 l 5.202,-14.0442 c 0.0864,-0.2534 0.1786,-0.5012 0.265,-0.7374 0.0864,-0.2419 0.1612,-0.4839 0.2188,-0.7374 0.0577,-0.2477 0.0864,-0.4782 0.0864,-0.697 0,-0.3111 -0.0867,-0.6222 -0.2709,-0.9274 z"
       id="path4" />
    <path
       d="m 80.3426,15.27 c -0.8641,-0.7489 -1.8202,-1.2674 -2.8744,-1.5382 -1.0542,-0.2765 -2.3217,-0.409 -3.7961,-0.409 h -5.6742 c -0.9392,0 -1.6188,0.2074 -2.0393,0.628 -0.4205,0.4206 -0.6281,1.1002 -0.6281,2.0393 v 15.7551 c 0,0.697 0.0577,1.2615 0.1845,1.6936 0.1209,0.4378 0.3803,0.772 0.7834,1.0139 0.3974,0.2419 0.9966,0.3572 1.7858,0.3572 h 5.6742 c 0.985,0 1.8722,-0.0634 2.6612,-0.1901 0.7893,-0.1267 1.5209,-0.3457 2.2063,-0.6566 0.6855,-0.3169 1.3136,-0.7316 1.8896,-1.2501 0.7316,-0.6739 1.3364,-1.4344 1.803,-2.2927 0.4723,-0.8526 0.818,-1.8145 1.0427,-2.8803 0.2247,-1.0656 0.3342,-2.2408 0.3342,-3.5312 0,-3.9115 -1.1175,-6.8208 -3.3528,-8.7389 z m -3.2431,15.0696 c -0.3226,0.2823 -0.7029,0.5069 -1.1406,0.6624 -0.4436,0.1555 -0.8641,0.2536 -1.2787,0.2938 -0.4093,0.0346 -0.9738,0.0577 -1.6995,0.0577 H 69.6855 V 16.7677 h 2.8688 c 1.3307,0 2.4657,0.144 3.4046,0.432 0.9389,0.288 1.7282,0.9562 2.3675,2.0162 0.6393,1.0542 0.9563,2.6442 0.9563,4.764 0,3.007 -0.7259,5.1269 -2.1832,6.3597 z"
       id="path5" />
  </g>
  <g
     id="text5"
     style="font-size:37.3333px;font-family:Arial"
     aria-label=".works">
    <path
       style="font-size:29.3333px;font-family:'Arial Rounded MT Bold';-inkscape-font-specification:'Arial Rounded MT Bold, '"
       d="m 102.9847,35.195318 q -0.88802,0 -1.53255,-0.572916 -0.64453,-0.572916 -0.64453,-1.604164 0,-0.873697 0.61588,-1.503905 0.61589,-0.630208 1.51823,-0.630208 0.90234,0 1.53255,0.630208 0.64453,0.615885 0.64453,1.503905 0,1.016926 -0.64453,1.604164 -0.63021,0.572916 -1.48958,0.572916 z"
       id="path6" />
    <path
       style="font-family:ArialRoundedMTBold;-inkscape-font-specification:ArialRoundedMTBold"
       d="m 113.22297,18.157573 3.24479,11.119782 2.95312,-10.335929 q 0.47396,-1.622394 0.69271,-2.205727 0.23698,-0.601562 0.85677,-1.130208 0.63802,-0.546874 1.73177,-0.546874 1.11198,0 1.73177,0.546874 0.63802,0.528646 0.89323,1.166666 0.25521,0.619791 0.71093,2.169269 l 2.95313,10.335929 3.28124,-11.119782 q 0.32813,-1.203124 0.52865,-1.73177 0.20052,-0.546874 0.67448,-0.947916 0.47396,-0.41927 1.36718,-0.41927 0.89323,0 1.54948,0.619791 0.65625,0.619791 0.65625,1.458332 0,0.765625 -0.5651,2.315102 l -4.0651,11.921865 q -0.52865,1.51302 -0.82031,2.187498 -0.29167,0.674479 -0.92969,1.203124 -0.61979,0.528646 -1.71354,0.528646 -1.13021,0 -1.78646,-0.565104 -0.63802,-0.565104 -0.94791,-1.385415 -0.3099,-0.820312 -0.67448,-2.132811 l -2.84375,-9.697909 -2.7526,9.697909 q -0.54688,2.023436 -1.1849,3.062497 -0.63802,1.020833 -2.24218,1.020833 -0.82031,0 -1.40365,-0.328125 -0.5651,-0.309896 -0.94791,-0.893228 -0.38282,-0.601562 -0.67448,-1.403645 -0.29167,-0.820312 -0.45573,-1.29427 l -4.02864,-11.921865 q -0.60156,-1.677082 -0.60156,-2.315102 0,-0.802082 0.63802,-1.440103 0.63802,-0.63802 1.5677,-0.63802 1.23958,0 1.67708,0.710937 0.4375,0.692708 0.92969,2.388019 z m 45.39059,7.018223 q 0,2.223956 -0.69271,4.101559 -0.69271,1.877602 -2.00521,3.22656 -1.3125,1.348957 -3.13541,2.078123 -1.82292,0.710937 -4.10156,0.710937 -2.26041,0 -4.0651,-0.729166 -1.80469,-0.729166 -3.13541,-2.078124 -1.3125,-1.367186 -2.00521,-3.20833 -0.67448,-1.859374 -0.67448,-4.101559 0,-2.260415 0.69271,-4.138017 0.69271,-1.877603 1.98698,-3.208331 1.29427,-1.330728 3.13541,-2.041665 1.84114,-0.729166 4.0651,-0.729166 2.26042,0 4.10156,0.729166 1.84114,0.729166 3.15364,2.078123 1.3125,1.348957 1.98698,3.208331 0.69271,1.859373 0.69271,4.101559 z m -4.99479,0 q 0,-3.044268 -1.34896,-4.739579 -1.33072,-1.695312 -3.59114,-1.695312 -1.45833,0 -2.57031,0.765625 -1.11198,0.747395 -1.71354,2.223956 -0.60156,1.476562 -0.60156,3.44531 0,1.950519 0.58333,3.408851 0.60156,1.458332 1.69531,2.242186 1.11198,0.765624 2.60677,0.765624 2.26042,0 3.59114,-1.695311 1.34896,-1.71354 1.34896,-4.72135 z m 13.85416,2.934893 v 4.156247 q 0,1.513019 -0.71094,2.278644 -0.71094,0.747395 -1.80469,0.747395 -1.07552,0 -1.76822,-0.765625 -0.69271,-0.765624 -0.69271,-2.260414 V 18.412781 q 0,-3.354164 2.42448,-3.354164 1.23958,0 1.78645,0.783853 0.54688,0.783854 0.60156,2.315103 0.89323,-1.531249 1.82292,-2.315103 0.94792,-0.783853 2.51562,-0.783853 1.56771,0 3.04427,0.783853 1.47656,0.783854 1.47656,2.078124 0,0.911457 -0.63802,1.513019 -0.61979,0.583333 -1.34896,0.583333 -0.27343,0 -1.33072,-0.328125 -1.03906,-0.346354 -1.84115,-0.346354 -1.09375,0 -1.78645,0.583333 -0.69271,0.565104 -1.07552,1.695311 -0.38282,1.130208 -0.52865,2.697915 -0.14583,1.549478 -0.14583,3.791663 z m 22.87758,4.903642 -4.39323,-7.218744 -2.69791,2.552081 v 3.955726 q 0,1.440103 -0.76562,2.223956 -0.7474,0.765625 -1.73177,0.765625 -1.14844,0 -1.80469,-0.765625 -0.65625,-0.765624 -0.65625,-2.260414 V 11.048204 q 0,-1.6588531 0.63802,-2.5156232 0.63802,-0.8749992 1.82292,-0.8749992 1.14843,0 1.82291,0.7838535 0.67448,0.7838535 0.67448,2.3151019 v 12.067698 l 5.59635,-5.869786 q 1.03906,-1.093749 1.58594,-1.494791 0.54687,-0.401041 1.33072,-0.401041 0.92969,0 1.54948,0.601562 0.61979,0.583333 0.61979,1.476561 0,1.093749 -2.02343,2.916664 l -2.64323,2.424477 5.10416,8.020827 q 0.56511,0.893228 0.80208,1.367186 0.25521,0.455729 0.25521,0.875 0,1.184894 -0.65625,1.877602 -0.63802,0.674479 -1.69531,0.674479 -0.91146,0 -1.40364,-0.492187 -0.49219,-0.492187 -1.33073,-1.786457 z m 24.09894,-4.229163 q 0,2.059894 -1.00261,3.536455 -1.0026,1.458332 -2.97135,2.223957 -1.95052,0.747395 -4.75781,0.747395 -2.67968,0 -4.59374,-0.820312 -1.91406,-0.820312 -2.82552,-2.041665 -0.91146,-1.239582 -0.91146,-2.479165 0,-0.820311 0.58333,-1.403644 0.58334,-0.583333 1.47657,-0.583333 0.78385,0 1.20312,0.382812 0.41927,0.382812 0.80208,1.07552 0.76563,1.330728 1.82292,1.986978 1.07552,0.656249 2.91666,0.656249 1.49479,0 2.44271,-0.656249 0.96614,-0.674479 0.96614,-1.531249 0,-1.312499 -1.0026,-1.914061 -0.98437,-0.601562 -3.26302,-1.148437 -2.57031,-0.63802 -4.1927,-1.330728 -1.60417,-0.710936 -2.57031,-1.859373 -0.96615,-1.148437 -0.96615,-2.825518 0,-1.494791 0.89323,-2.825519 0.89323,-1.330728 2.625,-2.114581 1.75,-0.802083 4.21093,-0.802083 1.93229,0 3.46354,0.401041 1.54948,0.401042 2.57031,1.07552 1.03906,0.674479 1.56771,1.494791 0.54687,0.820311 0.54687,1.604165 0,0.85677 -0.58333,1.403645 -0.5651,0.546874 -1.6224,0.546874 -0.76562,0 -1.31249,-0.4375 -0.52865,-0.437499 -1.22136,-1.312498 -0.5651,-0.729166 -1.33073,-1.166666 -0.76562,-0.4375 -2.07812,-0.4375 -1.34896,0 -2.24218,0.583333 -0.89323,0.565104 -0.89323,1.421874 0,0.783853 0.65625,1.29427 0.65625,0.492187 1.76822,0.820311 1.11198,0.328125 3.0625,0.802083 2.3151,0.565104 3.77344,1.348957 1.47656,0.783854 2.22395,1.859374 0.76563,1.05729 0.76563,2.424477 z"
       id="path7" />
  </g>
</svg>
